<?xml version="1.0" standalone="no"?>
<!DOCTYPE svg PUBLIC "-//W3C//DTD SVG 20010904//EN"
 "http://www.w3.org/TR/2001/REC-SVG-20010904/DTD/svg10.dtd">
<svg version="1.0" xmlns="http://www.w3.org/2000/svg"
 width="992.000000pt" height="1056.000000pt" viewBox="0 0 992.000000 1056.000000"
 preserveAspectRatio="xMidYMid meet">

<g transform="translate(0.000000,1056.000000) scale(0.100000,-0.100000)"
fill="#000000" stroke="none">
<path d="M4710 10023 c-264 -25 -613 -89 -840 -153 -126 -35 -363 -115 -540
-182 -106 -40 -537 -257 -673 -340 -446 -270 -865 -638 -1248 -1098 -121 -145
-317 -427 -427 -614 -70 -121 -232 -437 -232 -455 0 -7 -6 -22 -14 -34 -24
-37 -121 -294 -164 -432 -165 -531 -233 -981 -234 -1545 -1 -707 156 -1379
477 -2035 383 -784 990 -1453 1752 -1933 165 -104 587 -317 763 -385 222 -87
693 -214 905 -246 77 -11 185 -27 240 -35 188 -27 459 -39 795 -33 323 5 327
5 560 45 346 60 631 138 965 268 50 19 104 41 120 48 17 8 66 31 110 51 403
185 784 427 1111 705 147 126 481 462 579 584 400 495 683 998 866 1541 55
163 138 469 163 605 27 142 77 538 83 660 7 158 -14 733 -32 876 -25 191 -64
400 -101 549 -47 185 -154 509 -221 668 -69 165 -228 483 -306 615 -162 270
-556 776 -736 942 -359 332 -677 578 -916 710 -33 19 -101 57 -150 86 -207
120 -673 314 -949 394 -145 42 -377 93 -561 124 -282 47 -409 56 -772 54 -186
0 -354 -3 -373 -5z m877 -157 c465 -50 895 -162 1318 -346 746 -324 1396 -842
1882 -1500 604 -819 917 -1803 897 -2820 -8 -419 -49 -711 -159 -1130 -181
-683 -522 -1316 -1015 -1880 -667 -764 -1612 -1299 -2620 -1484 -776 -142
-1592 -78 -2337 184 -425 149 -859 379 -1211 642 -347 259 -727 638 -972 968
-454 614 -745 1324 -849 2075 -30 212 -38 345 -40 624 -5 734 150 1408 474
2066 252 512 563 940 959 1322 474 458 990 784 1606 1016 422 159 845 249
1320 281 119 8 613 -4 747 -18z"/>
<path d="M5246 9612 c-41 -28 -65 -70 -72 -126 -6 -43 -11 -50 -40 -62 -64
-27 -68 -135 -7 -163 l26 -12 -9 -177 c-12 -244 -11 -252 11 -268 22 -16 108
-19 134 -4 27 14 31 32 41 180 5 74 12 165 16 203 6 65 7 67 35 67 34 0 69 41
69 80 0 34 -35 80 -61 80 -12 0 -19 7 -19 19 0 20 18 31 54 31 56 0 76 86 32
137 -22 25 -31 28 -103 31 -64 2 -83 0 -107 -16z"/>
<path d="M6095 9501 c-75 -19 -142 -79 -172 -150 -21 -49 -20 -147 1 -196 24
-56 48 -80 158 -151 108 -71 123 -88 105 -125 -16 -31 -66 -37 -117 -14 -40
18 -64 51 -75 103 -8 39 -35 59 -92 68 -58 9 -90 -1 -108 -36 -30 -59 -13
-150 44 -233 78 -114 275 -176 403 -127 161 60 235 255 152 397 -24 42 -96 96
-222 169 -56 32 -51 84 8 84 46 0 59 -9 91 -71 34 -63 48 -70 134 -71 61 -1
75 13 75 80 0 115 -47 190 -153 241 -66 33 -174 48 -232 32z"/>
<path d="M4680 9404 c-123 -24 -190 -83 -190 -168 0 -45 37 -76 91 -76 31 0
48 8 78 36 30 26 47 35 68 32 36 -4 43 -34 11 -47 -183 -71 -217 -91 -243
-142 -60 -115 21 -268 149 -284 43 -6 63 -3 102 14 27 12 56 28 65 37 14 12
20 12 43 0 32 -16 110 -11 144 10 26 17 28 47 7 97 -8 19 -19 100 -25 179 -6
78 -15 160 -21 180 -11 44 -50 93 -89 113 -30 15 -147 27 -190 19z m108 -405
c5 -45 -64 -84 -102 -56 -26 19 -15 42 31 66 48 26 67 23 71 -10z"/>
<path d="M3481 9286 c-48 -17 -73 -52 -65 -90 3 -17 46 -134 95 -261 49 -126
102 -261 116 -300 49 -127 72 -147 144 -119 58 23 79 42 79 73 0 24 -59 179
-150 396 -21 50 -54 132 -74 183 -49 134 -66 147 -145 118z"/>
<path d="M4009 9274 c-66 -20 -130 -81 -164 -156 -38 -81 -39 -182 -5 -273 30
-81 124 -175 193 -194 105 -30 254 23 308 107 29 46 38 103 21 130 -5 7 -23
16 -40 21 -25 8 -41 5 -82 -16 -27 -13 -50 -29 -50 -34 0 -10 -60 -39 -79 -39
-14 0 -42 30 -36 40 3 5 38 18 78 30 166 49 198 63 213 92 24 47 -17 157 -86
232 -65 71 -165 93 -271 60z m112 -184 c36 -20 25 -30 -48 -45 -37 -7 -45 11
-17 39 18 19 38 20 65 6z"/>
<path d="M6643 9105 c-29 -20 -34 -41 -83 -340 -23 -137 -46 -256 -53 -263 -8
-11 -26 -13 -64 -9 -45 5 -57 2 -79 -16 -33 -29 -44 -96 -20 -132 40 -62 172
-93 242 -57 47 24 394 373 497 500 32 39 36 91 10 114 -30 26 -80 48 -110 48
-30 0 -80 -45 -177 -163 -27 -32 -50 -56 -53 -53 -2 2 12 67 32 145 44 167 42
184 -19 212 -66 29 -98 32 -123 14z"/>
<path d="M3133 8905 c-47 -24 -78 -55 -94 -95 -4 -10 -20 -15 -45 -16 -57 -1
-124 -45 -124 -83 0 -24 177 -365 236 -456 30 -46 88 -45 143 1 41 34 40 65
-4 145 -120 218 -135 267 -97 302 19 18 59 22 78 9 6 -4 46 -71 89 -150 77
-142 106 -182 133 -182 24 0 86 32 104 54 10 12 18 32 18 45 0 31 -178 344
-228 401 -36 41 -42 44 -98 47 -49 4 -68 0 -111 -22z"/>
<path d="M7250 8735 c-111 -50 -160 -176 -109 -277 12 -23 43 -68 70 -100 53
-63 63 -98 29 -98 -29 0 -70 44 -70 75 0 89 -123 163 -175 105 -23 -25 -30
-103 -15 -160 18 -65 115 -158 203 -193 37 -15 77 -27 90 -27 111 0 207 100
207 216 0 68 -32 131 -108 212 -22 24 -34 54 -25 63 15 15 49 -18 62 -60 21
-70 127 -124 174 -89 24 18 32 82 17 137 -34 126 -244 243 -350 196z"/>
<path d="M2615 8561 c-38 -16 -85 -68 -85 -94 0 -16 21 -53 52 -94 28 -37 76
-99 105 -138 56 -74 64 -105 37 -143 -12 -18 -24 -22 -52 -20 -34 3 -45 13
-124 113 -48 61 -97 120 -109 133 -32 33 -80 29 -125 -10 -55 -49 -47 -80 60
-215 171 -215 203 -243 286 -243 79 0 168 69 191 148 12 40 14 42 41 37 23 -6
37 0 73 30 61 49 60 73 -7 150 -28 33 -103 124 -165 203 -63 78 -118 142 -123
142 -4 0 -14 2 -22 4 -7 3 -22 1 -33 -3z"/>
<path d="M7893 8430 c-47 -35 -55 -38 -82 -29 -59 21 -134 -55 -112 -113 9
-25 7 -28 -150 -196 -111 -117 -118 -177 -31 -273 75 -84 137 -96 187 -37 28
34 33 89 10 108 -29 24 -16 54 65 140 l80 84 29 -17 c41 -24 66 -21 101 11 34
31 44 72 25 99 -22 28 -18 42 25 89 47 51 49 72 15 131 -24 40 -29 43 -68 43
-33 0 -53 -8 -94 -40z"/>
<path d="M4925 8384 c-748 -40 -1472 -357 -2003 -878 -532 -521 -851 -1155
-949 -1886 -27 -205 -25 -645 5 -832 145 -918 619 -1660 1372 -2154 361 -236
804 -405 1225 -468 367 -55 770 -45 1127 29 782 161 1516 664 1954 1340 364
561 541 1184 521 1835 -15 475 -120 896 -328 1310 -448 893 -1303 1519 -2279
1669 -178 28 -476 44 -645 35z m488 -154 c671 -79 1273 -366 1743 -835 232
-230 403 -460 547 -735 216 -412 323 -829 334 -1307 11 -437 -59 -815 -224
-1218 -390 -951 -1203 -1620 -2208 -1816 -217 -42 -579 -60 -801 -40 -593 55
-1137 271 -1609 639 -128 101 -351 320 -448 442 -275 345 -470 736 -572 1150
-64 264 -86 440 -86 715 0 485 106 930 324 1360 306 601 762 1054 1361 1349
346 171 715 275 1081 305 129 11 427 6 558 -9z"/>
<path d="M5004 7411 c-50 -31 -64 -58 -64 -127 0 -135 45 -639 60 -680 12 -31
68 -56 110 -48 17 4 41 19 54 34 22 27 24 39 32 237 13 308 12 513 -4 541 -33
58 -128 80 -188 43z"/>
<path d="M5512 7354 c-57 -29 -55 -20 -132 -475 -48 -281 -49 -311 -15 -344
28 -29 97 -34 132 -10 25 17 56 108 137 395 70 250 86 313 86 339 0 12 -17 40
-38 63 -33 35 -45 41 -88 45 -33 2 -60 -2 -82 -13z"/>
<path d="M4510 7329 c-63 -25 -97 -93 -81 -159 5 -19 37 -114 71 -210 34 -96
68 -197 77 -225 28 -93 74 -200 96 -222 32 -35 100 -32 138 6 17 17 29 40 29
55 0 49 -138 638 -164 700 -24 57 -99 81 -166 55z"/>
<path d="M5993 7180 c-39 -23 -32 -11 -199 -377 -148 -325 -153 -345 -105
-394 34 -33 91 -40 128 -14 12 9 67 91 121 183 253 427 266 452 258 500 -6 40
-44 84 -91 107 -44 20 -73 19 -112 -5z"/>
<path d="M4144 7145 c-218 -109 -556 -437 -755 -731 -112 -166 -234 -437 -285
-632 -41 -159 -55 -267 -61 -462 -6 -212 9 -354 57 -560 43 -179 51 -207 75
-237 37 -45 67 -36 190 55 103 77 286 178 442 245 70 30 86 57 63 111 -124
301 -173 528 -174 811 -1 183 21 366 46 381 7 5 9 -3 5 -22 -13 -59 -28 -301
-22 -364 16 -174 53 -337 115 -506 48 -128 65 -160 95 -180 35 -23 55 -11 100
59 62 97 59 98 252 -74 60 -53 94 -69 153 -69 66 0 188 41 213 71 25 31 22 57
-19 156 -34 83 -37 97 -44 238 -6 138 -9 154 -35 200 -55 99 -111 192 -169
280 -121 183 -185 371 -205 598 -18 208 14 373 101 519 37 63 39 70 28 98 -25
60 -69 64 -166 15z"/>
<path d="M6420 6883 c-14 -9 -38 -33 -55 -52 -16 -19 -57 -67 -90 -105 -95
-111 -270 -327 -299 -370 -34 -51 -35 -102 -1 -138 30 -32 64 -43 103 -33 30
7 503 471 528 517 8 15 14 45 14 67 0 93 -126 165 -200 114z"/>
<path d="M4242 6809 c-23 -24 -32 -69 -32 -160 0 -74 17 -114 97 -226 49 -69
79 -88 124 -78 37 8 79 59 79 95 0 39 -137 306 -181 352 -41 43 -60 47 -87 17z"/>
<path d="M4980 6519 c-211 -25 -516 -163 -634 -288 -25 -26 -29 -38 -28 -83 1
-46 10 -66 94 -205 51 -84 110 -173 131 -198 35 -40 43 -45 81 -45 49 0 84 28
116 91 38 74 156 146 278 170 109 21 284 0 372 -43 234 -117 396 -350 415
-600 11 -131 -15 -239 -83 -341 -40 -60 -63 -64 -140 -25 -35 18 -82 49 -103
69 -45 42 -51 78 -20 131 37 64 45 112 32 186 -13 75 -42 126 -112 199 -122
129 -261 165 -367 96 -59 -39 -82 -86 -82 -169 1 -83 21 -137 106 -279 33 -55
75 -131 94 -168 40 -81 77 -114 162 -145 69 -25 179 -77 247 -117 92 -54 313
-164 390 -194 160 -62 196 -39 303 194 129 280 153 614 63 886 -146 444 -473
745 -930 858 -93 22 -278 32 -385 20z"/>
<path d="M6668 6413 c-211 -143 -463 -325 -480 -346 -25 -32 -23 -96 5 -130
16 -20 34 -30 64 -34 47 -6 32 -13 348 171 83 49 166 97 185 108 134 76 166
113 156 179 -8 51 -29 83 -71 109 -56 35 -83 27 -207 -57z"/>
<path d="M6970 5994 c-19 -7 -159 -57 -310 -110 -151 -54 -286 -104 -299 -113
-71 -45 -55 -168 24 -190 27 -7 60 -2 162 24 584 151 590 153 619 222 34 80
-34 184 -118 182 -24 -1 -59 -7 -78 -15z"/>
<path d="M7039 5486 c-2 -2 -105 -11 -229 -20 -361 -26 -376 -29 -405 -56 -33
-31 -42 -83 -22 -125 29 -61 43 -63 440 -64 l359 -2 39 39 c35 35 39 45 39 88
0 61 -28 110 -75 130 -31 13 -135 20 -146 10z"/>
<path d="M6361 5061 c-26 -24 -31 -37 -31 -74 0 -57 25 -89 82 -106 24 -8 77
-24 118 -37 116 -35 303 -89 434 -124 101 -27 122 -30 147 -19 60 24 100 103
85 164 -12 49 -56 85 -125 101 -102 23 -635 124 -658 124 -11 0 -35 -13 -52
-29z"/>
<path d="M4370 4931 c-83 -26 -123 -71 -135 -153 -10 -69 10 -138 65 -221 86
-131 196 -215 315 -239 48 -9 61 -8 113 11 78 29 150 86 180 141 36 69 28 129
-34 260 -57 119 -100 174 -147 188 -41 13 -324 23 -357 13z"/>
<path d="M5277 4802 c-21 -22 -21 -38 -3 -122 31 -151 -40 -349 -182 -501 -65
-71 -122 -109 -214 -145 -43 -17 -76 -38 -86 -52 -15 -23 -15 -26 10 -47 34
-30 97 -38 273 -37 200 1 415 31 574 81 34 10 61 15 61 11 0 -9 -119 -50 -216
-74 -205 -52 -628 -67 -919 -32 -410 48 -713 122 -1024 248 -98 40 -123 41
-142 7 -39 -73 278 -420 551 -604 217 -146 458 -248 725 -305 115 -25 336 -50
445 -50 100 0 313 23 420 46 520 109 1019 451 1327 909 55 82 157 269 182 332
24 61 17 96 -24 115 -22 10 -32 7 -73 -16 -95 -55 -194 -97 -289 -123 -89 -25
-113 -28 -268 -27 -142 0 -182 3 -245 21 -238 66 -552 212 -789 365 -35 22
-74 22 -94 0z"/>
<path d="M3795 4743 c-11 -3 -51 -22 -90 -43 -38 -21 -86 -46 -105 -57 -93
-49 -220 -133 -262 -174 -88 -84 -70 -105 207 -229 11 -5 74 -30 140 -55 66
-25 131 -51 145 -57 56 -23 280 -89 354 -104 91 -19 126 -11 126 30 0 18 -14
34 -52 62 -138 98 -237 217 -315 379 -41 86 -47 105 -46 157 3 84 -26 110
-102 91z"/>
<path d="M6245 4716 c-31 -31 -43 -91 -24 -125 14 -24 95 -79 194 -132 34 -18
51 -21 115 -16 134 11 198 47 164 95 -19 27 -83 72 -160 110 -195 99 -246 111
-289 68z"/>
<path d="M1832 8095 c-104 -53 -191 -184 -193 -290 -2 -95 35 -163 115 -210
94 -55 184 -42 329 50 49 30 95 55 103 55 62 0 73 -63 20 -116 -33 -33 -36
-34 -114 -34 -79 0 -80 -1 -110 -34 -42 -48 -47 -71 -25 -108 27 -47 93 -78
166 -78 50 0 71 6 123 35 73 41 147 119 180 190 64 136 1 307 -134 360 -84 34
-153 15 -364 -101 -79 -43 -117 -9 -62 55 24 28 31 31 86 31 70 0 109 19 133
64 27 49 17 86 -33 120 -62 44 -147 48 -220 11z"/>
<path d="M8026 8009 c-100 -24 -225 -132 -264 -226 -30 -71 -29 -153 2 -218
57 -120 208 -211 284 -171 40 21 56 50 48 89 -7 33 -61 97 -82 97 -6 0 -26 13
-42 29 -22 20 -29 34 -25 50 3 11 9 21 13 21 5 0 38 -36 75 -80 81 -98 109
-120 148 -120 66 0 166 127 184 233 8 51 -20 141 -62 199 -57 78 -181 121
-279 97z m122 -211 c15 -15 16 -61 0 -56 -6 2 -22 18 -36 36 l-25 32 25 0 c13
0 29 -5 36 -12z"/>
<path d="M8480 7471 c-25 -10 -94 -43 -155 -74 -60 -31 -140 -70 -177 -86
-102 -47 -120 -88 -72 -161 34 -51 83 -68 140 -50 22 7 86 37 144 66 78 41
115 54 147 54 38 0 43 -3 43 -23 0 -37 -27 -64 -83 -85 -103 -40 -213 -94
-239 -120 -47 -44 -29 -136 33 -167 42 -22 73 -13 232 67 122 61 160 68 181
36 17 -28 -18 -55 -160 -123 -72 -35 -141 -73 -153 -86 -39 -43 -21 -135 34
-169 41 -25 61 -25 105 1 19 12 96 52 171 90 74 37 148 78 163 90 41 32 66 94
66 162 0 74 -17 112 -72 164 -46 43 -58 72 -58 139 0 48 -18 80 -56 100 -35
19 -45 38 -64 114 -20 78 -76 99 -170 61z"/>
<path d="M1150 6604 c-6 -14 -8 -29 -6 -32 2 -4 7 -56 11 -117 l7 -110 -94
-54 c-113 -65 -128 -78 -128 -106 0 -33 13 -39 142 -75 l117 -32 11 -56 c6
-32 19 -86 28 -122 17 -64 18 -65 51 -65 29 0 38 6 55 36 12 20 41 68 66 108
l45 72 128 -6 c138 -6 157 -1 157 40 0 17 -44 79 -90 125 -3 3 -20 22 -39 42
l-34 37 42 121 c64 183 47 200 -123 120 -125 -58 -109 -61 -218 39 -75 69
-112 79 -128 35z"/>
<path d="M9145 6195 c-106 -14 -251 -35 -453 -64 -153 -23 -165 -32 -164 -118
2 -51 5 -61 33 -86 l30 -28 108 7 107 7 13 -68 c16 -90 49 -153 109 -207 121
-108 276 -103 393 12 90 89 98 165 53 479 -3 18 -16 44 -29 57 -28 28 -49 29
-200 9z m33 -284 c4 -52 -11 -84 -45 -100 -56 -26 -103 17 -103 93 0 51 7 55
95 52 l50 -1 3 -44z"/>
<path d="M8905 5376 c-262 -91 -277 -97 -303 -131 -17 -21 -22 -41 -22 -86 0
-82 19 -100 155 -150 412 -152 412 -152 444 -120 24 24 27 65 10 125 -15 54
-38 69 -159 106 -157 47 -153 44 -74 64 112 28 228 67 247 83 13 12 17 32 17
78 0 74 -22 105 -73 104 -18 0 -126 -33 -242 -73z"/>
<path d="M1430 5173 c-25 -2 -124 -10 -220 -19 -96 -9 -204 -18 -240 -21 -114
-8 -130 -22 -130 -108 0 -24 8 -50 20 -65 18 -24 24 -25 143 -28 117 -3 126
-5 148 -28 12 -13 21 -26 18 -27 -4 -4 -192 -126 -251 -163 -50 -32 -63 -78
-43 -154 15 -56 43 -90 74 -90 10 0 101 59 202 131 101 72 191 135 200 139 12
7 46 -14 135 -80 93 -70 126 -90 152 -90 25 0 35 5 41 23 12 31 -1 151 -19
172 -8 9 -75 58 -149 108 l-135 91 34 7 c19 4 70 10 113 14 106 9 132 31 130
106 -2 88 -27 97 -223 82z"/>
<path d="M9015 4770 c-22 -25 -48 -25 -227 -4 -150 18 -192 15 -233 -18 -76
-59 -87 -206 -18 -237 55 -25 100 -11 137 43 12 18 16 18 136 2 69 -10 130
-21 136 -27 6 -5 14 -23 17 -39 7 -35 44 -61 86 -62 35 -1 59 16 72 50 8 20
14 22 44 17 19 -3 51 -7 70 -10 28 -5 40 -1 60 19 14 14 25 37 25 51 0 57 -62
140 -114 151 -17 3 -47 24 -67 45 -42 46 -93 53 -124 19z"/>
<path d="M8465 4440 c-21 -23 -35 -98 -24 -129 13 -33 68 -61 122 -61 40 0 54
5 78 29 34 34 40 92 13 130 -36 50 -154 70 -189 31z"/>
<path d="M1370 4371 c-33 -9 -54 -53 -45 -97 5 -27 17 -43 51 -67 43 -30 63
-65 49 -86 -14 -24 -36 -7 -99 79 -73 100 -117 130 -189 130 -55 0 -121 -34
-160 -83 -55 -67 -48 -194 13 -252 26 -25 27 -31 23 -89 -6 -72 5 -102 44
-117 21 -8 38 -4 89 20 35 16 114 44 176 62 124 35 169 54 218 96 44 37 61 82
61 165 1 115 -57 205 -150 237 -37 12 -44 12 -81 2z m-151 -281 c27 -37 18
-53 -30 -53 -21 0 -37 7 -50 24 -21 27 -25 75 -6 82 19 7 60 -18 86 -53z"/>
<path d="M8289 3877 c-9 -7 -45 -66 -79 -132 -34 -66 -75 -144 -91 -172 -42
-79 -55 -128 -40 -156 17 -33 62 -57 104 -57 47 0 73 29 141 160 52 101 73
123 99 102 22 -18 325 -181 421 -226 72 -34 109 -28 143 23 33 49 40 98 17
126 -22 28 -647 345 -678 345 -12 0 -28 -6 -37 -13z"/>
<path d="M1583 3855 c-11 -8 -28 -32 -36 -53 -14 -34 -26 -44 -92 -76 -43 -20
-100 -46 -128 -57 -105 -42 -158 -96 -165 -170 -8 -90 55 -169 135 -169 56 0
85 33 91 104 l4 54 67 30 c36 17 89 40 116 50 l51 20 23 -24 c29 -30 79 -32
115 -3 20 16 26 29 26 60 0 35 4 42 32 57 48 25 88 68 88 92 0 12 -13 35 -29
51 -24 23 -38 29 -75 29 -24 0 -57 -5 -71 -10 -22 -8 -32 -6 -52 10 -30 24
-70 26 -100 5z"/>
<path d="M1890 3522 c-52 -32 -157 -98 -234 -147 -294 -191 -321 -216 -296
-276 14 -32 64 -79 85 -79 13 0 158 95 209 137 16 13 51 36 79 50 48 24 52 24
84 9 28 -13 33 -21 33 -50 0 -40 -9 -49 -188 -176 -123 -89 -148 -116 -138
-155 10 -41 64 -95 95 -95 33 0 287 180 351 248 76 81 91 175 41 254 -16 25
-43 54 -60 64 -17 10 -31 22 -31 26 0 5 26 25 58 44 117 74 137 113 86 173
-36 44 -63 39 -174 -27z"/>
<path d="M7899 3239 c-59 -62 -73 -91 -64 -136 12 -65 101 -106 151 -68 32 24
52 18 135 -40 85 -61 95 -70 79 -80 -15 -9 -12 -68 6 -93 33 -48 111 -67 146
-35 18 16 22 15 83 -18 l64 -34 28 21 c15 11 34 33 41 47 11 23 10 33 -6 69
-11 24 -31 54 -46 67 -18 18 -26 34 -26 59 0 49 -40 99 -85 108 -22 4 -41 2
-50 -6 -11 -9 -41 7 -156 86 -127 87 -148 98 -195 102 -53 4 -53 4 -105 -49z"/>
<path d="M7737 2998 c-54 -15 -140 -96 -157 -150 -8 -24 -29 -58 -47 -77 -23
-24 -33 -44 -33 -65 0 -57 -4 -52 353 -397 65 -63 132 -122 150 -132 67 -36
130 -11 142 57 9 47 2 63 -55 126 -27 30 -50 57 -49 60 0 3 19 19 41 35 22 17
52 50 65 75 48 89 13 225 -84 325 -59 60 -155 125 -211 141 -51 16 -62 16
-115 2z m112 -212 c38 -20 109 -100 117 -132 11 -45 -14 -78 -61 -82 -50 -3
-94 23 -135 79 -67 93 -14 183 79 135z"/>
<path d="M2017 2753 c-172 -170 -217 -224 -217 -258 0 -34 57 -85 95 -85 30 0
48 15 156 125 112 114 126 125 159 125 43 0 60 -14 60 -52 0 -21 -21 -50 -93
-125 -141 -148 -147 -155 -153 -191 -6 -29 -2 -38 27 -68 59 -61 75 -53 219
96 109 114 129 130 157 130 33 0 63 -29 63 -60 0 -8 -55 -76 -121 -150 -121
-136 -136 -161 -124 -200 9 -30 75 -71 102 -64 27 7 289 292 314 342 37 71 19
153 -45 210 -36 32 -55 39 -111 44 -28 3 -30 6 -32 45 -3 79 -64 147 -145 161
-39 7 -43 10 -40 34 4 36 -50 98 -86 98 -20 0 -62 -36 -185 -157z"/>
<path d="M7251 2551 c-26 -24 -31 -37 -31 -74 0 -54 26 -91 76 -107 68 -23
134 28 134 103 0 33 -6 46 -36 73 -47 45 -98 47 -143 5z"/>
<path d="M2885 2232 c-49 -17 -85 -60 -85 -100 0 -24 63 -82 89 -82 10 0 32 5
49 11 46 16 92 -11 92 -52 0 -30 -1 -31 -37 -26 -21 2 -72 17 -113 32 -128 47
-215 20 -261 -82 -58 -127 25 -257 173 -270 45 -5 58 -9 58 -23 0 -9 12 -27
28 -41 65 -57 116 -66 133 -21 31 77 67 146 123 232 77 119 90 150 83 201 -7
50 -36 94 -96 141 -88 69 -179 100 -236 80z m21 -364 c32 -11 32 -12 19 -39
-29 -55 -107 -52 -128 5 -16 42 40 59 109 34z"/>
<path d="M3404 1941 c-9 -10 -38 -74 -65 -142 -28 -68 -54 -133 -59 -144 -33
-72 -70 -181 -70 -204 0 -35 23 -55 77 -71 67 -20 80 -5 149 165 62 156 83
185 137 185 33 0 56 -23 57 -58 0 -13 -25 -87 -55 -165 -30 -78 -55 -156 -55
-174 0 -36 23 -57 81 -73 50 -15 77 10 115 106 17 43 50 125 73 181 69 169 51
256 -63 315 -32 16 -53 19 -102 15 -60 -4 -63 -3 -69 20 -4 16 -20 31 -48 43
-53 25 -83 25 -103 1z"/>
<path d="M6095 1924 c-14 -14 -16 -36 -13 -143 l3 -125 -105 -71 c-153 -102
-148 -125 35 -164 55 -12 105 -28 111 -36 6 -8 19 -52 29 -97 25 -120 39 -148
69 -148 28 0 41 17 118 155 l43 78 132 -5 c116 -5 134 -3 148 12 26 29 17 48
-58 128 -100 106 -99 105 -88 133 80 189 89 236 45 253 -9 4 -63 -16 -131 -49
l-115 -55 -90 75 c-49 41 -96 75 -103 75 -8 0 -21 -7 -30 -16z"/>
<path d="M4413 1871 c-11 -11 -30 -66 -43 -121 -23 -94 -40 -120 -54 -84 -3 8
-27 24 -52 36 -64 28 -139 22 -189 -16 -49 -38 -100 -110 -120 -171 -23 -69
-31 -203 -15 -259 33 -118 168 -191 264 -141 36 19 46 19 46 -1 0 -18 58 -44
99 -44 43 0 54 23 90 185 126 575 122 557 110 586 -12 29 -19 33 -81 43 -29 5
-41 2 -55 -13z m-158 -338 c28 -27 37 -65 30 -123 -13 -109 -64 -171 -122
-149 -32 12 -45 44 -44 110 1 70 18 117 57 153 33 30 56 33 79 9z"/>
<path d="M4701 1623 c-22 -18 -24 -27 -34 -231 -9 -191 -8 -215 7 -256 44
-114 179 -158 284 -92 38 24 41 24 47 7 7 -22 33 -31 92 -31 67 0 71 12 80
250 14 369 16 360 -77 360 -90 0 -96 -12 -105 -210 -8 -178 -20 -219 -67 -231
-20 -5 -34 -2 -53 13 l-25 19 0 184 c0 161 -2 185 -18 205 -25 31 -99 39 -131
13z"/>
</g>
</svg>
